<mxGraphModel dx="0" dy="0" grid="1" gridSize="10" guides="1" tooltips="1" connect="1" arrows="1" fold="1" page="0" pageScale="1" background="none" math="0" shadow="0">
  <root>
    <mxCell id="0" />
    <mxCell id="1" parent="0" />
    <mxCell id="node1" parent="1" vertex="1" value="&lt;p style=&quot;margin:0px;margin-top:4px;text-align:center;&quot;&gt;&lt;b&gt;Admin&lt;/b&gt;&lt;/p&gt;&lt;hr size=&quot;1&quot;/&gt;&lt;p style=&quot;margin:0 0 0 4px;line-height:1.6;&quot;&gt;+ Admin(): &lt;br/&gt;+ Admin(String, String, Integer, String, String, String, long): &lt;/p&gt;&lt;hr size=&quot;1&quot;/&gt;&lt;p style=&quot;margin:0 0 0 4px;line-height:1.6;&quot;&gt;+ toString(): String&lt;/p&gt;" style="verticalAlign=top;align=left;overflow=fill;fontSize=14;fontFamily=Helvetica;html=1;rounded=0;shadow=0;comic=0;labelBackgroundColor=none;strokeWidth=1;">
      <mxGeometry x="477" y="812" width="348" height="107" as="geometry" />
    </mxCell>
    <mxCell id="node4" parent="1" vertex="1" value="&lt;p style=&quot;margin:0px;margin-top:4px;text-align:center;&quot;&gt;&lt;b&gt;Booking&lt;/b&gt;&lt;/p&gt;&lt;hr size=&quot;1&quot;/&gt;&lt;p style=&quot;margin:0 0 0 4px;line-height:1.6;&quot;&gt;+ Booking(): &lt;br/&gt;+ Booking(Guest, Room, LocalDate, LocalDate, BookingState): &lt;/p&gt;&lt;hr size=&quot;1&quot;/&gt;&lt;p style=&quot;margin:0 0 0 4px;line-height:1.6;&quot;&gt;- checkInDate: LocalDate&lt;br/&gt;- checkOutDate: LocalDate&lt;br/&gt;- spentMoney: double&lt;br/&gt;- bookingState: BookingState&lt;br/&gt;- bookedRoom: Room&lt;br/&gt;- bookingId: String&lt;br/&gt;- guest: Guest&lt;/p&gt;&lt;hr size=&quot;1&quot;/&gt;&lt;p style=&quot;margin:0 0 0 4px;line-height:1.6;&quot;&gt;+ setCheckInDate(LocalDate): void&lt;br/&gt;+ setBookedRoom(Room): void&lt;br/&gt;+ getCheckOutDate(): LocalDate&lt;br/&gt;+ getBookingState(): BookingState&lt;br/&gt;+ getSpentMoney(): double&lt;br/&gt;+ reservedDays(LocalDate, LocalDate): long&lt;br/&gt;+ getBookedRoom(): Room&lt;br/&gt;+ setSpentMoney(double): void&lt;br/&gt;+ setGuest(Guest): void&lt;br/&gt;+ toString(): String&lt;br/&gt;+ getCheckInDate(): LocalDate&lt;br/&gt;+ shortUUID(): String&lt;br/&gt;+ getBookingId(): String&lt;br/&gt;+ setCheckOutDate(LocalDate): void&lt;br/&gt;+ getGuest(): Guest&lt;br/&gt;+ setBookingState(BookingState): void&lt;/p&gt;" style="verticalAlign=top;align=left;overflow=fill;fontSize=14;fontFamily=Helvetica;html=1;rounded=0;shadow=0;comic=0;labelBackgroundColor=none;strokeWidth=1;">
      <mxGeometry x="1237" y="134" width="364" height="584" as="geometry" />
    </mxCell>
    <mxCell id="node2" parent="1" vertex="1" value="&lt;p style=&quot;margin:0px;margin-top:4px;text-align:center;&quot;&gt;&lt;b&gt;Employee&lt;/b&gt;&lt;/p&gt;&lt;hr size=&quot;1&quot;/&gt;&lt;p style=&quot;margin:0 0 0 4px;line-height:1.6;&quot;&gt;+ Employee(): &lt;br/&gt;+ Employee(String, String, Integer, String, String, String, long): &lt;/p&gt;&lt;hr size=&quot;1&quot;/&gt;&lt;p style=&quot;margin:0 0 0 4px;line-height:1.6;&quot;&gt;+ toString(): String&lt;/p&gt;" style="verticalAlign=top;align=left;overflow=fill;fontSize=14;fontFamily=Helvetica;html=1;rounded=0;shadow=0;comic=0;labelBackgroundColor=none;strokeWidth=1;">
      <mxGeometry x="845" y="812" width="347" height="107" as="geometry" />
    </mxCell>
    <mxCell id="node3" parent="1" vertex="1" value="&lt;p style=&quot;margin:0px;margin-top:4px;text-align:center;&quot;&gt;&lt;b&gt;Guest&lt;/b&gt;&lt;/p&gt;&lt;hr size=&quot;1&quot;/&gt;&lt;p style=&quot;margin:0 0 0 4px;line-height:1.6;&quot;&gt;+ Guest(String, String, Integer, String, Long): &lt;br/&gt;+ Guest(): &lt;/p&gt;&lt;hr size=&quot;1&quot;/&gt;&lt;p style=&quot;margin:0 0 0 4px;line-height:1.6;&quot;&gt;+ toString(): String&lt;/p&gt;" style="verticalAlign=top;align=left;overflow=fill;fontSize=14;fontFamily=Helvetica;html=1;rounded=0;shadow=0;comic=0;labelBackgroundColor=none;strokeWidth=1;">
      <mxGeometry x="186" y="812" width="271" height="107" as="geometry" />
    </mxCell>
    <mxCell id="node5" parent="1" vertex="1" value="&lt;p style=&quot;margin:0px;margin-top:4px;text-align:center;&quot;&gt;&lt;b&gt;Room&lt;/b&gt;&lt;/p&gt;&lt;hr size=&quot;1&quot;/&gt;&lt;p style=&quot;margin:0 0 0 4px;line-height:1.6;&quot;&gt;+ Room(): &lt;br/&gt;+ Room(boolean, Integer, RoomType): &lt;/p&gt;&lt;hr size=&quot;1&quot;/&gt;&lt;p style=&quot;margin:0 0 0 4px;line-height:1.6;&quot;&gt;- roomType: RoomType&lt;br/&gt;- isAvailable: boolean&lt;br/&gt;- roomNumber: Integer&lt;/p&gt;&lt;hr size=&quot;1&quot;/&gt;&lt;p style=&quot;margin:0 0 0 4px;line-height:1.6;&quot;&gt;+ setAvailable(boolean): void&lt;br/&gt;+ getRoomType(): RoomType&lt;br/&gt;+ isAvailable(): boolean&lt;br/&gt;+ getRoomNumber(): Integer&lt;br/&gt;+ setRoomNumber(Integer): void&lt;br/&gt;+ toString(): String&lt;br/&gt;+ setRoomType(RoomType): void&lt;/p&gt;" style="verticalAlign=top;align=left;overflow=fill;fontSize=14;fontFamily=Helvetica;html=1;rounded=0;shadow=0;comic=0;labelBackgroundColor=none;strokeWidth=1;">
      <mxGeometry x="186" y="956" width="241" height="298" as="geometry" />
    </mxCell>
    <mxCell id="node0" parent="1" vertex="1" value="&lt;p style=&quot;margin:0px;margin-top:4px;text-align:center;&quot;&gt;&lt;b&gt;User&lt;/b&gt;&lt;/p&gt;&lt;hr size=&quot;1&quot;/&gt;&lt;p style=&quot;margin:0 0 0 4px;line-height:1.6;&quot;&gt;+ User(): &lt;br/&gt;+ User(String, String, Integer, String, Long): &lt;br/&gt;+ User(String, String, Integer, String, String, String, Long): &lt;/p&gt;&lt;hr size=&quot;1&quot;/&gt;&lt;p style=&quot;margin:0 0 0 4px;line-height:1.6;&quot;&gt;- dni: Integer&lt;br/&gt;- email: String&lt;br/&gt;- phoneNumber: Long&lt;br/&gt;- lastName: String&lt;br/&gt;- password: String&lt;br/&gt;- name: String&lt;br/&gt;- user: String&lt;/p&gt;&lt;hr size=&quot;1&quot;/&gt;&lt;p style=&quot;margin:0 0 0 4px;line-height:1.6;&quot;&gt;+ setName(String): void&lt;br/&gt;+ getDni(): Integer&lt;br/&gt;+ hashCode(): int&lt;br/&gt;+ getEmail(): String&lt;br/&gt;+ setPassword(String): void&lt;br/&gt;+ setLastName(String): void&lt;br/&gt;+ getPassword(): String&lt;br/&gt;+ getUser(): String&lt;br/&gt;+ toString(): String&lt;br/&gt;+ getPhoneNumber(): Long&lt;br/&gt;+ setUser(String): void&lt;br/&gt;+ setPhoneNumber(Long): void&lt;br/&gt;+ equals(Object): boolean&lt;br/&gt;+ getName(): String&lt;br/&gt;+ getLastName(): String&lt;br/&gt;+ setDni(Integer): void&lt;br/&gt;+ setEmail(String): void&lt;/p&gt;" style="verticalAlign=top;align=left;overflow=fill;fontSize=14;fontFamily=Helvetica;html=1;rounded=0;shadow=0;comic=0;labelBackgroundColor=none;strokeWidth=1;">
      <mxGeometry x="482" y="134" width="338" height="628" as="geometry" />
    </mxCell>
    <mxCell id="edge0" edge="1" value="" parent="1" source="node1" target="node0" style="html=1;rounded=1;edgeStyle=orthogonalEdgeStyle;dashed=0;startArrow=none;endArrow=block;endSize=12;strokeColor=#000082;exitX=0.500;exitY=0.000;exitDx=0;exitDy=0;entryX=0.500;entryY=1.000;entryDx=0;entryDy=0;">
      <mxGeometry width="50" height="50" relative="1" as="geometry">
        <Array as="points" />
      </mxGeometry>
    </mxCell>
    <mxCell id="edge1" edge="1" value="" parent="1" source="node2" target="node0" style="html=1;rounded=1;edgeStyle=orthogonalEdgeStyle;dashed=0;startArrow=none;endArrow=block;endSize=12;strokeColor=#000082;exitX=0.500;exitY=0.000;exitDx=0;exitDy=0;entryX=0.500;entryY=1.000;entryDx=0;entryDy=0;">
      <mxGeometry width="50" height="50" relative="1" as="geometry">
        <Array as="points">
          <mxPoint x="1019" y="787" />
          <mxPoint x="651" y="787" />
        </Array>
      </mxGeometry>
    </mxCell>
    <mxCell id="edge2" edge="1" value="" parent="1" source="node3" target="node0" style="html=1;rounded=1;edgeStyle=orthogonalEdgeStyle;dashed=0;startArrow=none;endArrow=block;endSize=12;strokeColor=#000082;exitX=0.500;exitY=0.000;exitDx=0;exitDy=0;entryX=0.500;entryY=1.000;entryDx=0;entryDy=0;">
      <mxGeometry width="50" height="50" relative="1" as="geometry">
        <Array as="points">
          <mxPoint x="322" y="787" />
          <mxPoint x="651" y="787" />
        </Array>
      </mxGeometry>
    </mxCell>
  </root>
</mxGraphModel>